<svg width="32" height="32" viewBox="0 0 32 32" fill="none" xmlns="http://www.w3.org/2000/svg">
  <path d="M25.565 3.887c-.61-.001-1.215.107-1.787.32a5.1 5.1 0 0 0-7.778-1.754A5.1 5.1 0 0 0 7.71 6.438v2.55H6.435A5.1 5.1 0 0 0 1.333 14.09v1.913a14.667 14.667 0 0 0 29.334 0V8.988a5.1 5.1 0 0 0-5.102-5.101Z" fill="#F1F0EC"/>
  <path d="M19.188 4.163a2.275 2.275 0 0 1 2.276 2.275V10.9a.913.913 0 1 0 1.826 0V8.988a2.275 2.275 0 1 1 4.551 0v7.014a11.84 11.84 0 0 1-23.682 0v-1.914a2.275 2.275 0 0 1 2.276-2.275H8.71v4.189a.913.913 0 1 0 1.826 0V6.438a2.275 2.275 0 1 1 4.551 0V10.9a.913.913 0 1 0 1.826 0V6.438a2.275 2.275 0 0 1 2.275-2.275Z" fill="#190F0A"/>
</svg>
